<svg width="86" height="22" viewBox="0 0 86 22" fill="none" xmlns="http://www.w3.org/2000/svg">
<path d="M7.536 8.76L7.088 12.16H8.272V13.44H6.912L6.584 16H5.08L5.416 13.44H3.392L3.056 16H1.552L1.888 13.44H0.744V12.16H2.056L2.52 8.76H1.336V7.472H2.688L3.016 4.96H4.528L4.176 7.472H6.208L6.544 4.96H8.048L7.704 7.472H8.864V8.76H7.536ZM3.56 12.16H5.584L6.04 8.76H4.008L3.56 12.16Z" fill="#C778DD"/>
<path d="M22.496 14.744C22.8907 14.744 23.2587 14.6773 23.6 14.544C23.9413 14.4053 24.2667 14.2267 24.576 14.008L25.408 15.16C25.04 15.4747 24.592 15.7307 24.064 15.928C23.5413 16.12 23 16.216 22.44 16.216C21.576 16.216 20.8373 16.0347 20.224 15.672C19.6107 15.304 19.1413 14.7893 18.816 14.128C18.4907 13.4667 18.328 12.696 18.328 11.816C18.328 10.9573 18.4907 10.192 18.816 9.52C19.1467 8.84267 19.6213 8.30933 20.24 7.92C20.8587 7.52533 21.6027 7.328 22.472 7.328C23.048 7.328 23.5787 7.41333 24.064 7.584C24.5493 7.75467 24.9947 8.008 25.4 8.344L24.576 9.472C24.2453 9.24267 23.9067 9.06933 23.56 8.952C23.2187 8.82933 22.8667 8.768 22.504 8.768C21.8373 8.768 21.2907 9.01333 20.864 9.504C20.4427 9.99467 20.232 10.7653 20.232 11.816C20.232 12.52 20.328 13.088 20.52 13.52C20.7173 13.9467 20.9867 14.2587 21.328 14.456C21.6693 14.648 22.0587 14.744 22.496 14.744ZM31.4018 7.328C32.2284 7.328 32.9244 7.512 33.4898 7.88C34.0551 8.248 34.4818 8.76267 34.7698 9.424C35.0631 10.0853 35.2098 10.864 35.2098 11.76C35.2098 12.6507 35.0604 13.432 34.7618 14.104C34.4684 14.7707 34.0364 15.2907 33.4658 15.664C32.9004 16.032 32.2098 16.216 31.3938 16.216C30.5778 16.216 29.8844 16.0373 29.3138 15.68C28.7484 15.3173 28.3164 14.8027 28.0178 14.136C27.7244 13.4693 27.5778 12.6827 27.5778 11.776C27.5778 10.896 27.7244 10.1227 28.0178 9.456C28.3164 8.78933 28.7511 8.26933 29.3218 7.896C29.8924 7.51733 30.5858 7.328 31.4018 7.328ZM31.4018 8.72C30.7564 8.72 30.2711 8.968 29.9458 9.464C29.6204 9.95467 29.4578 10.7253 29.4578 11.776C29.4578 12.8213 29.6178 13.592 29.9378 14.088C30.2631 14.584 30.7484 14.832 31.3938 14.832C32.0391 14.832 32.5218 14.584 32.8418 14.088C33.1671 13.592 33.3298 12.816 33.3298 11.76C33.3298 10.72 33.1698 9.95467 32.8498 9.464C32.5298 8.968 32.0471 8.72 31.4018 8.72ZM37.6115 16V7.552H39.1555L39.2915 8.648C39.6435 8.216 40.0595 7.888 40.5395 7.664C41.0195 7.44 41.5128 7.328 42.0195 7.328C42.8088 7.328 43.3982 7.54933 43.7875 7.992C44.1822 8.42933 44.3795 9.04533 44.3795 9.84V16H42.5875V10.728C42.5875 10.2373 42.5582 9.84267 42.4995 9.544C42.4408 9.24533 42.3235 9.02933 42.1475 8.896C41.9768 8.76267 41.7208 8.696 41.3795 8.696C41.1075 8.696 40.8488 8.75467 40.6035 8.872C40.3582 8.98933 40.1342 9.144 39.9315 9.336C39.7288 9.52267 39.5528 9.72267 39.4035 9.936V16H37.6115ZM54.2613 15.552C53.9519 15.7493 53.5813 15.9093 53.1493 16.032C52.7173 16.1547 52.2666 16.216 51.7973 16.216C50.8159 16.216 50.0693 15.9627 49.5573 15.456C49.0506 14.944 48.7973 14.272 48.7973 13.44V8.856H46.9173V7.552H48.7973V5.664L50.5893 5.448V7.552H53.4373L53.2373 8.856H50.5893V13.424C50.5893 13.8773 50.7013 14.216 50.9253 14.44C51.1546 14.6587 51.5279 14.768 52.0453 14.768C52.3546 14.768 52.6399 14.7307 52.9013 14.656C53.1626 14.5813 53.3999 14.4853 53.6133 14.368L54.2613 15.552ZM63.255 13.928C63.255 14.2587 63.3057 14.5013 63.407 14.656C63.5083 14.8053 63.671 14.9173 63.895 14.992L63.495 16.208C63.079 16.16 62.7217 16.0453 62.423 15.864C62.1243 15.6827 61.8977 15.408 61.743 15.04C61.4337 15.4293 61.0417 15.7227 60.567 15.92C60.0923 16.1173 59.5857 16.216 59.047 16.216C58.1937 16.216 57.5163 15.976 57.015 15.496C56.519 15.0107 56.271 14.376 56.271 13.592C56.271 12.7013 56.6177 12.016 57.311 11.536C58.0043 11.056 58.9963 10.816 60.287 10.816H61.495V10.264C61.495 9.72 61.3297 9.328 60.999 9.088C60.6737 8.848 60.2123 8.728 59.615 8.728C59.3377 8.728 59.0017 8.76533 58.607 8.84C58.2123 8.90933 57.799 9.01867 57.367 9.168L56.927 7.904C57.455 7.70667 57.9723 7.56267 58.479 7.472C58.9857 7.376 59.455 7.328 59.887 7.328C61.0177 7.328 61.8603 7.57867 62.415 8.08C62.975 8.58133 63.255 9.27467 63.255 10.16V13.928ZM59.591 14.896C59.9537 14.896 60.3083 14.8 60.655 14.608C61.0017 14.416 61.2817 14.1467 61.495 13.8V11.936H60.503C59.6603 11.936 59.0577 12.0773 58.695 12.36C58.3323 12.6373 58.151 13.0213 58.151 13.512C58.151 13.96 58.271 14.304 58.511 14.544C58.7563 14.7787 59.1163 14.896 59.591 14.896ZM70.4648 14.744C70.8594 14.744 71.2274 14.6773 71.5688 14.544C71.9101 14.4053 72.2354 14.2267 72.5448 14.008L73.3767 15.16C73.0088 15.4747 72.5608 15.7307 72.0328 15.928C71.5101 16.12 70.9688 16.216 70.4088 16.216C69.5448 16.216 68.8061 16.0347 68.1928 15.672C67.5794 15.304 67.1101 14.7893 66.7848 14.128C66.4594 13.4667 66.2968 12.696 66.2968 11.816C66.2968 10.9573 66.4594 10.192 66.7848 9.52C67.1154 8.84267 67.5901 8.30933 68.2088 7.92C68.8274 7.52533 69.5714 7.328 70.4408 7.328C71.0168 7.328 71.5474 7.41333 72.0328 7.584C72.5181 7.75467 72.9634 8.008 73.3688 8.344L72.5448 9.472C72.2141 9.24267 71.8754 9.06933 71.5288 8.952C71.1874 8.82933 70.8354 8.768 70.4728 8.768C69.8061 8.768 69.2594 9.01333 68.8328 9.504C68.4114 9.99467 68.2008 10.7653 68.2008 11.816C68.2008 12.52 68.2968 13.088 68.4888 13.52C68.6861 13.9467 68.9554 14.2587 69.2968 14.456C69.6381 14.648 70.0274 14.744 70.4648 14.744ZM83.0425 15.552C82.7332 15.7493 82.3625 15.9093 81.9305 16.032C81.4985 16.1547 81.0478 16.216 80.5785 16.216C79.5972 16.216 78.8505 15.9627 78.3385 15.456C77.8318 14.944 77.5785 14.272 77.5785 13.44V8.856H75.6985V7.552H77.5785V5.664L79.3705 5.448V7.552H82.2185L82.0185 8.856H79.3705V13.424C79.3705 13.8773 79.4825 14.216 79.7065 14.44C79.9358 14.6587 80.3092 14.768 80.8265 14.768C81.1358 14.768 81.4212 14.7307 81.6825 14.656C81.9438 14.5813 82.1812 14.4853 82.3945 14.368L83.0425 15.552Z" fill="white"/>
</svg>
