<svg width="104" height="21" viewBox="0 0 104 21" fill="none" xmlns="http://www.w3.org/2000/svg">
<path d="M7.536 8.76L7.088 12.16H8.272V13.44H6.912L6.584 16H5.08L5.416 13.44H3.392L3.056 16H1.552L1.888 13.44H0.744V12.16H2.056L2.52 8.76H1.336V7.472H2.688L3.016 4.96H4.528L4.176 7.472H6.208L6.544 4.96H8.048L7.704 7.472H8.864V8.76H7.536ZM3.56 12.16H5.584L6.04 8.76H4.008L3.56 12.16Z" fill="#C778DD"/>
<path d="M19.912 12.352C19.9493 12.928 20.072 13.4 20.28 13.768C20.488 14.1307 20.76 14.3973 21.096 14.568C21.4373 14.7387 21.8107 14.824 22.216 14.824C22.632 14.824 23.016 14.76 23.368 14.632C23.72 14.504 24.0747 14.3227 24.432 14.088L25.208 15.16C24.8133 15.48 24.352 15.736 23.824 15.928C23.296 16.12 22.7307 16.216 22.128 16.216C21.2533 16.216 20.512 16.0293 19.904 15.656C19.3013 15.2827 18.8427 14.7627 18.528 14.096C18.2133 13.4293 18.056 12.6587 18.056 11.784C18.056 10.936 18.2107 10.1787 18.52 9.512C18.8293 8.84 19.272 8.30933 19.848 7.92C20.424 7.52533 21.112 7.328 21.912 7.328C22.664 7.328 23.3093 7.49867 23.848 7.84C24.392 8.18133 24.8107 8.66667 25.104 9.296C25.4027 9.92 25.552 10.672 25.552 11.552C25.552 11.696 25.5467 11.84 25.536 11.984C25.5307 12.1227 25.5227 12.2453 25.512 12.352H19.912ZM21.928 8.656C21.368 8.656 20.904 8.856 20.536 9.256C20.1733 9.656 19.9627 10.28 19.904 11.128H23.816C23.8 10.3333 23.6293 9.72267 23.304 9.296C22.984 8.86933 22.5253 8.656 21.928 8.656ZM32.9778 3.96L34.7698 4.16V16H33.1938L33.0658 14.96C32.7778 15.36 32.4338 15.6693 32.0338 15.888C31.6338 16.1067 31.1858 16.216 30.6898 16.216C29.9644 16.216 29.3671 16.032 28.8978 15.664C28.4284 15.2907 28.0791 14.7707 27.8498 14.104C27.6258 13.432 27.5138 12.656 27.5138 11.776C27.5138 10.9173 27.6471 10.1547 27.9138 9.488C28.1804 8.816 28.5618 8.288 29.0578 7.904C29.5538 7.52 30.1511 7.328 30.8498 7.328C31.2924 7.328 31.6898 7.408 32.0418 7.568C32.3938 7.72267 32.7058 7.94933 32.9778 8.248V3.96ZM31.3218 8.704C30.7191 8.704 30.2498 8.95467 29.9138 9.456C29.5778 9.952 29.4098 10.7253 29.4098 11.776C29.4098 12.496 29.4791 13.0827 29.6178 13.536C29.7564 13.984 29.9564 14.3147 30.2178 14.528C30.4791 14.736 30.7938 14.84 31.1618 14.84C31.5671 14.84 31.9191 14.7227 32.2178 14.488C32.5164 14.2533 32.7698 13.9707 32.9778 13.64V9.64C32.7698 9.34133 32.5271 9.112 32.2498 8.952C31.9724 8.78667 31.6631 8.704 31.3218 8.704ZM39.4035 7.552V13.456C39.4035 13.9573 39.5022 14.3147 39.6995 14.528C39.9022 14.7413 40.2062 14.848 40.6115 14.848C40.9955 14.848 41.3662 14.7333 41.7235 14.504C42.0808 14.2747 42.3635 13.9947 42.5715 13.664V7.552H44.3635V16H42.8195L42.7075 14.92C42.3928 15.3413 41.9955 15.664 41.5155 15.888C41.0355 16.1067 40.5448 16.216 40.0435 16.216C39.2275 16.216 38.6168 15.992 38.2115 15.544C37.8115 15.0907 37.6115 14.4693 37.6115 13.68V7.552H39.4035ZM51.2773 14.744C51.6719 14.744 52.0399 14.6773 52.3813 14.544C52.7226 14.4053 53.0479 14.2267 53.3573 14.008L54.1892 15.16C53.8213 15.4747 53.3733 15.7307 52.8453 15.928C52.3226 16.12 51.7813 16.216 51.2213 16.216C50.3573 16.216 49.6186 16.0347 49.0053 15.672C48.3919 15.304 47.9226 14.7893 47.5973 14.128C47.2719 13.4667 47.1093 12.696 47.1093 11.816C47.1093 10.9573 47.2719 10.192 47.5973 9.52C47.9279 8.84267 48.4026 8.30933 49.0213 7.92C49.6399 7.52533 50.3839 7.328 51.2533 7.328C51.8293 7.328 52.3599 7.41333 52.8453 7.584C53.3306 7.75467 53.7759 8.008 54.1813 8.344L53.3573 9.472C53.0266 9.24267 52.6879 9.06933 52.3413 8.952C51.9999 8.82933 51.6479 8.768 51.2853 8.768C50.6186 8.768 50.0719 9.01333 49.6453 9.504C49.2239 9.99467 49.0133 10.7653 49.0133 11.816C49.0133 12.52 49.1093 13.088 49.3013 13.52C49.4986 13.9467 49.7679 14.2587 50.1093 14.456C50.4506 14.648 50.8399 14.744 51.2773 14.744ZM63.255 13.928C63.255 14.2587 63.3057 14.5013 63.407 14.656C63.5083 14.8053 63.671 14.9173 63.895 14.992L63.495 16.208C63.079 16.16 62.7217 16.0453 62.423 15.864C62.1243 15.6827 61.8977 15.408 61.743 15.04C61.4337 15.4293 61.0417 15.7227 60.567 15.92C60.0923 16.1173 59.5857 16.216 59.047 16.216C58.1937 16.216 57.5163 15.976 57.015 15.496C56.519 15.0107 56.271 14.376 56.271 13.592C56.271 12.7013 56.6177 12.016 57.311 11.536C58.0043 11.056 58.9963 10.816 60.287 10.816H61.495V10.264C61.495 9.72 61.3297 9.328 60.999 9.088C60.6737 8.848 60.2123 8.728 59.615 8.728C59.3377 8.728 59.0017 8.76533 58.607 8.84C58.2123 8.90933 57.799 9.01867 57.367 9.168L56.927 7.904C57.455 7.70667 57.9723 7.56267 58.479 7.472C58.9857 7.376 59.455 7.328 59.887 7.328C61.0177 7.328 61.8603 7.57867 62.415 8.08C62.975 8.58133 63.255 9.27467 63.255 10.16V13.928ZM59.591 14.896C59.9537 14.896 60.3083 14.8 60.655 14.608C61.0017 14.416 61.2817 14.1467 61.495 13.8V11.936H60.503C59.6603 11.936 59.0577 12.0773 58.695 12.36C58.3323 12.6373 58.151 13.0213 58.151 13.512C58.151 13.96 58.271 14.304 58.511 14.544C58.7563 14.7787 59.1163 14.896 59.591 14.896ZM73.4488 15.552C73.1394 15.7493 72.7688 15.9093 72.3368 16.032C71.9048 16.1547 71.4541 16.216 70.9848 16.216C70.0034 16.216 69.2568 15.9627 68.7448 15.456C68.2381 14.944 67.9848 14.272 67.9848 13.44V8.856H66.1048V7.552H67.9848V5.664L69.7768 5.448V7.552H72.6248L72.4248 8.856H69.7768V13.424C69.7768 13.8773 69.8888 14.216 70.1128 14.44C70.3421 14.6587 70.7154 14.768 71.2328 14.768C71.5421 14.768 71.8274 14.7307 72.0888 14.656C72.3501 14.5813 72.5874 14.4853 72.8008 14.368L73.4488 15.552ZM80.6025 7.552V14.688H82.8985V16H76.2825V14.688H78.8105V8.864H76.3625V7.552H80.6025ZM79.3545 3.416C79.7065 3.416 79.9892 3.52267 80.2025 3.736C80.4212 3.94933 80.5305 4.216 80.5305 4.536C80.5305 4.856 80.4212 5.12533 80.2025 5.344C79.9892 5.56267 79.7065 5.672 79.3545 5.672C79.0132 5.672 78.7332 5.56267 78.5145 5.344C78.2958 5.12533 78.1865 4.856 78.1865 4.536C78.1865 4.216 78.2958 3.94933 78.5145 3.736C78.7332 3.52267 79.0132 3.416 79.3545 3.416ZM88.9643 7.328C89.7909 7.328 90.4869 7.512 91.0523 7.88C91.6176 8.248 92.0443 8.76267 92.3323 9.424C92.6256 10.0853 92.7723 10.864 92.7723 11.76C92.7723 12.6507 92.6229 13.432 92.3243 14.104C92.0309 14.7707 91.5989 15.2907 91.0283 15.664C90.4629 16.032 89.7723 16.216 88.9563 16.216C88.1403 16.216 87.4469 16.0373 86.8763 15.68C86.3109 15.3173 85.8789 14.8027 85.5803 14.136C85.2869 13.4693 85.1403 12.6827 85.1403 11.776C85.1403 10.896 85.2869 10.1227 85.5803 9.456C85.8789 8.78933 86.3136 8.26933 86.8843 7.896C87.4549 7.51733 88.1483 7.328 88.9643 7.328ZM88.9643 8.72C88.3189 8.72 87.8336 8.968 87.5083 9.464C87.1829 9.95467 87.0203 10.7253 87.0203 11.776C87.0203 12.8213 87.1803 13.592 87.5003 14.088C87.8256 14.584 88.3109 14.832 88.9563 14.832C89.6016 14.832 90.0843 14.584 90.4043 14.088C90.7296 13.592 90.8923 12.816 90.8923 11.76C90.8923 10.72 90.7323 9.95467 90.4123 9.464C90.0923 8.968 89.6096 8.72 88.9643 8.72ZM95.174 16V7.552H96.718L96.854 8.648C97.206 8.216 97.622 7.888 98.102 7.664C98.582 7.44 99.0753 7.328 99.582 7.328C100.371 7.328 100.961 7.54933 101.35 7.992C101.745 8.42933 101.942 9.04533 101.942 9.84V16H100.15V10.728C100.15 10.2373 100.121 9.84267 100.062 9.544C100.003 9.24533 99.886 9.02933 99.71 8.896C99.5393 8.76267 99.2833 8.696 98.942 8.696C98.67 8.696 98.4113 8.75467 98.166 8.872C97.9207 8.98933 97.6967 9.144 97.494 9.336C97.2913 9.52267 97.1153 9.72267 96.966 9.936V16H95.174Z" fill="white"/>
</svg>
