<svg width="115" height="22" viewBox="0 0 115 22" fill="none" xmlns="http://www.w3.org/2000/svg">
<path d="M7.536 8.76L7.088 12.16H8.272V13.44H6.912L6.584 16H5.08L5.416 13.44H3.392L3.056 16H1.552L1.888 13.44H0.744V12.16H2.056L2.52 8.76H1.336V7.472H2.688L3.016 4.96H4.528L4.176 7.472H6.208L6.544 4.96H8.048L7.704 7.472H8.864V8.76H7.536ZM3.56 12.16H5.584L6.04 8.76H4.008L3.56 12.16Z" fill="#C778DD"/>
<path d="M19.912 12.352C19.9493 12.928 20.072 13.4 20.28 13.768C20.488 14.1307 20.76 14.3973 21.096 14.568C21.4373 14.7387 21.8107 14.824 22.216 14.824C22.632 14.824 23.016 14.76 23.368 14.632C23.72 14.504 24.0747 14.3227 24.432 14.088L25.208 15.16C24.8133 15.48 24.352 15.736 23.824 15.928C23.296 16.12 22.7307 16.216 22.128 16.216C21.2533 16.216 20.512 16.0293 19.904 15.656C19.3013 15.2827 18.8427 14.7627 18.528 14.096C18.2133 13.4293 18.056 12.6587 18.056 11.784C18.056 10.936 18.2107 10.1787 18.52 9.512C18.8293 8.84 19.272 8.30933 19.848 7.92C20.424 7.52533 21.112 7.328 21.912 7.328C22.664 7.328 23.3093 7.49867 23.848 7.84C24.392 8.18133 24.8107 8.66667 25.104 9.296C25.4027 9.92 25.552 10.672 25.552 11.552C25.552 11.696 25.5467 11.84 25.536 11.984C25.5307 12.1227 25.5227 12.2453 25.512 12.352H19.912ZM21.928 8.656C21.368 8.656 20.904 8.856 20.536 9.256C20.1733 9.656 19.9627 10.28 19.904 11.128H23.816C23.8 10.3333 23.6293 9.72267 23.304 9.296C22.984 8.86933 22.5253 8.656 21.928 8.656ZM29.2658 16H27.2818L30.3138 11.544L27.6178 7.552H29.6818L31.4098 10.528L33.1378 7.552H35.1058L32.4658 11.472L35.5058 16H33.4018L31.3298 12.552L29.2658 16ZM41.7315 7.328C42.4782 7.328 43.0755 7.512 43.5235 7.88C43.9715 8.24267 44.2968 8.75733 44.4995 9.424C44.7022 10.0853 44.8035 10.864 44.8035 11.76C44.8035 12.6187 44.6808 13.384 44.4355 14.056C44.1902 14.728 43.8248 15.256 43.3395 15.64C42.8595 16.024 42.2622 16.216 41.5475 16.216C40.6622 16.216 39.9475 15.904 39.4035 15.28V19.248L37.6115 19.448V7.552H39.1715L39.2835 8.64C39.6035 8.20267 39.9742 7.87467 40.3955 7.656C40.8222 7.43733 41.2675 7.328 41.7315 7.328ZM41.2355 8.712C40.8355 8.712 40.4835 8.832 40.1795 9.072C39.8755 9.312 39.6168 9.59467 39.4035 9.92V13.872C39.6062 14.176 39.8462 14.4107 40.1235 14.576C40.4062 14.736 40.7235 14.816 41.0755 14.816C41.6782 14.816 42.1368 14.5733 42.4515 14.088C42.7662 13.6027 42.9235 12.8293 42.9235 11.768C42.9235 11.048 42.8595 10.464 42.7315 10.016C42.6088 9.56267 42.4222 9.232 42.1715 9.024C41.9262 8.816 41.6142 8.712 41.2355 8.712ZM48.6933 12.352C48.7306 12.928 48.8533 13.4 49.0613 13.768C49.2693 14.1307 49.5413 14.3973 49.8773 14.568C50.2186 14.7387 50.5919 14.824 50.9973 14.824C51.4133 14.824 51.7973 14.76 52.1493 14.632C52.5013 14.504 52.8559 14.3227 53.2133 14.088L53.9893 15.16C53.5946 15.48 53.1333 15.736 52.6053 15.928C52.0773 16.12 51.5119 16.216 50.9093 16.216C50.0346 16.216 49.2933 16.0293 48.6853 15.656C48.0826 15.2827 47.6239 14.7627 47.3093 14.096C46.9946 13.4293 46.8372 12.6587 46.8372 11.784C46.8372 10.936 46.9919 10.1787 47.3013 9.512C47.6106 8.84 48.0533 8.30933 48.6293 7.92C49.2053 7.52533 49.8933 7.328 50.6933 7.328C51.4453 7.328 52.0906 7.49867 52.6293 7.84C53.1733 8.18133 53.5919 8.66667 53.8853 9.296C54.1839 9.92 54.3333 10.672 54.3333 11.552C54.3333 11.696 54.3279 11.84 54.3173 11.984C54.3119 12.1227 54.3039 12.2453 54.2933 12.352H48.6933ZM50.7093 8.656C50.1493 8.656 49.6853 8.856 49.3173 9.256C48.9546 9.656 48.7439 10.28 48.6853 11.128H52.5973C52.5813 10.3333 52.4106 9.72267 52.0853 9.296C51.7653 8.86933 51.3066 8.656 50.7093 8.656ZM56.879 16V14.72H58.119V8.824H56.879V7.552H59.487L59.815 9.512C60.1297 8.80267 60.519 8.264 60.983 7.896C61.4523 7.52267 62.055 7.336 62.791 7.336C63.0417 7.336 63.2657 7.35733 63.463 7.4C63.6657 7.43733 63.8657 7.488 64.063 7.552L63.527 9.088C63.3563 9.04 63.1963 9.00533 63.047 8.984C62.8977 8.95733 62.7323 8.944 62.551 8.944C61.9377 8.944 61.407 9.17333 60.959 9.632C60.5163 10.0907 60.167 10.7413 59.911 11.584V14.72H61.615V16H56.879ZM62.479 10.664V8.584L62.703 7.552H64.063L63.759 10.664H62.479ZM71.0088 7.552V14.688H73.3048V16H66.6888V14.688H69.2168V8.864H66.7688V7.552H71.0088ZM69.7608 3.416C70.1128 3.416 70.3954 3.52267 70.6088 3.736C70.8274 3.94933 70.9368 4.216 70.9368 4.536C70.9368 4.856 70.8274 5.12533 70.6088 5.344C70.3954 5.56267 70.1128 5.672 69.7608 5.672C69.4194 5.672 69.1394 5.56267 68.9208 5.344C68.7021 5.12533 68.5928 4.856 68.5928 4.536C68.5928 4.216 68.7021 3.94933 68.9208 3.736C69.1394 3.52267 69.4194 3.416 69.7608 3.416ZM77.4745 12.352C77.5118 12.928 77.6345 13.4 77.8425 13.768C78.0505 14.1307 78.3225 14.3973 78.6585 14.568C78.9998 14.7387 79.3732 14.824 79.7785 14.824C80.1945 14.824 80.5785 14.76 80.9305 14.632C81.2825 14.504 81.6372 14.3227 81.9945 14.088L82.7705 15.16C82.3758 15.48 81.9145 15.736 81.3865 15.928C80.8585 16.12 80.2932 16.216 79.6905 16.216C78.8158 16.216 78.0745 16.0293 77.4665 15.656C76.8638 15.2827 76.4052 14.7627 76.0905 14.096C75.7758 13.4293 75.6185 12.6587 75.6185 11.784C75.6185 10.936 75.7732 10.1787 76.0825 9.512C76.3918 8.84 76.8345 8.30933 77.4105 7.92C77.9865 7.52533 78.6745 7.328 79.4745 7.328C80.2265 7.328 80.8718 7.49867 81.4105 7.84C81.9545 8.18133 82.3732 8.66667 82.6665 9.296C82.9652 9.92 83.1145 10.672 83.1145 11.552C83.1145 11.696 83.1092 11.84 83.0985 11.984C83.0932 12.1227 83.0852 12.2453 83.0745 12.352H77.4745ZM79.4905 8.656C78.9305 8.656 78.4665 8.856 78.0985 9.256C77.7358 9.656 77.5252 10.28 77.4665 11.128H81.3785C81.3625 10.3333 81.1918 9.72267 80.8665 9.296C80.5465 8.86933 80.0878 8.656 79.4905 8.656ZM85.5803 16V7.552H87.1243L87.2603 8.648C87.6123 8.216 88.0283 7.888 88.5083 7.664C88.9883 7.44 89.4816 7.328 89.9883 7.328C90.7776 7.328 91.3669 7.54933 91.7563 7.992C92.1509 8.42933 92.3483 9.04533 92.3483 9.84V16H90.5563V10.728C90.5563 10.2373 90.5269 9.84267 90.4683 9.544C90.4096 9.24533 90.2923 9.02933 90.1163 8.896C89.9456 8.76267 89.6896 8.696 89.3483 8.696C89.0763 8.696 88.8176 8.75467 88.5723 8.872C88.3269 8.98933 88.1029 9.144 87.9003 9.336C87.6976 9.52267 87.5216 9.72267 87.3723 9.936V16H85.5803ZM99.246 14.744C99.6407 14.744 100.009 14.6773 100.35 14.544C100.691 14.4053 101.017 14.2267 101.326 14.008L102.158 15.16C101.79 15.4747 101.342 15.7307 100.814 15.928C100.291 16.12 99.75 16.216 99.19 16.216C98.326 16.216 97.5873 16.0347 96.974 15.672C96.3607 15.304 95.8913 14.7893 95.566 14.128C95.2407 13.4667 95.078 12.696 95.078 11.816C95.078 10.9573 95.2407 10.192 95.566 9.52C95.8967 8.84267 96.3713 8.30933 96.99 7.92C97.6087 7.52533 98.3527 7.328 99.222 7.328C99.798 7.328 100.329 7.41333 100.814 7.584C101.299 7.75467 101.745 8.008 102.15 8.344L101.326 9.472C100.995 9.24267 100.657 9.06933 100.31 8.952C99.9687 8.82933 99.6167 8.768 99.254 8.768C98.5873 8.768 98.0407 9.01333 97.614 9.504C97.1927 9.99467 96.982 10.7653 96.982 11.816C96.982 12.52 97.078 13.088 97.27 13.52C97.4673 13.9467 97.7367 14.2587 98.078 14.456C98.4193 14.648 98.8087 14.744 99.246 14.744ZM106.256 12.352C106.293 12.928 106.416 13.4 106.624 13.768C106.832 14.1307 107.104 14.3973 107.44 14.568C107.781 14.7387 108.154 14.824 108.56 14.824C108.976 14.824 109.36 14.76 109.712 14.632C110.064 14.504 110.418 14.3227 110.776 14.088L111.552 15.16C111.157 15.48 110.696 15.736 110.168 15.928C109.64 16.12 109.074 16.216 108.472 16.216C107.597 16.216 106.856 16.0293 106.248 15.656C105.645 15.2827 105.186 14.7627 104.872 14.096C104.557 13.4293 104.4 12.6587 104.4 11.784C104.4 10.936 104.554 10.1787 104.864 9.512C105.173 8.84 105.616 8.30933 106.192 7.92C106.768 7.52533 107.456 7.328 108.256 7.328C109.008 7.328 109.653 7.49867 110.192 7.84C110.736 8.18133 111.154 8.66667 111.448 9.296C111.746 9.92 111.896 10.672 111.896 11.552C111.896 11.696 111.89 11.84 111.88 11.984C111.874 12.1227 111.866 12.2453 111.856 12.352H106.256ZM108.272 8.656C107.712 8.656 107.248 8.856 106.88 9.256C106.517 9.656 106.306 10.28 106.248 11.128H110.16C110.144 10.3333 109.973 9.72267 109.648 9.296C109.328 8.86933 108.869 8.656 108.272 8.656Z" fill="white"/>
</svg>
