<svg width="56" height="21" viewBox="0 0 56 21" fill="none" xmlns="http://www.w3.org/2000/svg">
<path d="M7.536 8.76L7.088 12.16H8.272V13.44H6.912L6.584 16H5.08L5.416 13.44H3.392L3.056 16H1.552L1.888 13.44H0.744V12.16H2.056L2.52 8.76H1.336V7.472H2.688L3.016 4.96H4.528L4.176 7.472H6.208L6.544 4.96H8.048L7.704 7.472H8.864V8.76H7.536ZM3.56 12.16H5.584L6.04 8.76H4.008L3.56 12.16Z" fill="#C778DD"/>
<path d="M20.216 3.984V8.584C20.5573 8.168 20.9573 7.856 21.416 7.648C21.8747 7.43467 22.3467 7.328 22.832 7.328C23.6267 7.328 24.2187 7.54933 24.608 7.992C24.9973 8.42933 25.192 9.04533 25.192 9.84V16H23.4V10.12C23.4 9.61333 23.304 9.25067 23.112 9.032C22.92 8.808 22.6107 8.696 22.184 8.696C21.9173 8.696 21.6613 8.75733 21.416 8.88C21.176 8.99733 20.952 9.152 20.744 9.344C20.5413 9.536 20.3653 9.74133 20.216 9.96V16H18.424V4.176L20.216 3.984ZM31.4018 7.328C32.2284 7.328 32.9244 7.512 33.4898 7.88C34.0551 8.248 34.4818 8.76267 34.7698 9.424C35.0631 10.0853 35.2098 10.864 35.2098 11.76C35.2098 12.6507 35.0604 13.432 34.7618 14.104C34.4684 14.7707 34.0364 15.2907 33.4658 15.664C32.9004 16.032 32.2098 16.216 31.3938 16.216C30.5778 16.216 29.8844 16.0373 29.3138 15.68C28.7484 15.3173 28.3164 14.8027 28.0178 14.136C27.7244 13.4693 27.5778 12.6827 27.5778 11.776C27.5778 10.896 27.7244 10.1227 28.0178 9.456C28.3164 8.78933 28.7511 8.26933 29.3218 7.896C29.8924 7.51733 30.5858 7.328 31.4018 7.328ZM31.4018 8.72C30.7564 8.72 30.2711 8.968 29.9458 9.464C29.6204 9.95467 29.4578 10.7253 29.4578 11.776C29.4578 12.8213 29.6178 13.592 29.9378 14.088C30.2631 14.584 30.7484 14.832 31.3938 14.832C32.0391 14.832 32.5218 14.584 32.8418 14.088C33.1671 13.592 33.3298 12.816 33.3298 11.76C33.3298 10.72 33.1698 9.95467 32.8498 9.464C32.5298 8.968 32.0471 8.72 31.4018 8.72ZM43.4355 7.328C43.7555 7.328 44.0435 7.39733 44.2995 7.536C44.5555 7.67467 44.7555 7.91733 44.8995 8.264C45.0488 8.61067 45.1235 9.096 45.1235 9.72V16H43.5315V9.968C43.5315 9.52533 43.4995 9.208 43.4355 9.016C43.3768 8.824 43.2195 8.728 42.9635 8.728C42.7608 8.728 42.5555 8.792 42.3475 8.92C42.1395 9.04267 41.9288 9.256 41.7155 9.56V16H40.2675V9.968C40.2675 9.52533 40.2355 9.208 40.1715 9.016C40.1128 8.824 39.9555 8.728 39.6995 8.728C39.4915 8.728 39.2835 8.792 39.0755 8.92C38.8728 9.04267 38.6648 9.256 38.4515 9.56V16H36.8515V7.552H38.2035L38.3235 8.464C38.5635 8.128 38.8248 7.856 39.1075 7.648C39.3902 7.43467 39.7315 7.328 40.1315 7.328C40.4515 7.328 40.7422 7.408 41.0035 7.568C41.2648 7.728 41.4568 8.008 41.5795 8.408C41.8142 8.088 42.0808 7.82933 42.3795 7.632C42.6782 7.42933 43.0302 7.328 43.4355 7.328ZM48.6933 12.352C48.7306 12.928 48.8533 13.4 49.0613 13.768C49.2693 14.1307 49.5413 14.3973 49.8773 14.568C50.2186 14.7387 50.5919 14.824 50.9973 14.824C51.4133 14.824 51.7973 14.76 52.1493 14.632C52.5013 14.504 52.8559 14.3227 53.2133 14.088L53.9893 15.16C53.5946 15.48 53.1333 15.736 52.6053 15.928C52.0773 16.12 51.5119 16.216 50.9093 16.216C50.0346 16.216 49.2933 16.0293 48.6853 15.656C48.0826 15.2827 47.6239 14.7627 47.3093 14.096C46.9946 13.4293 46.8372 12.6587 46.8372 11.784C46.8372 10.936 46.9919 10.1787 47.3013 9.512C47.6106 8.84 48.0533 8.30933 48.6293 7.92C49.2053 7.52533 49.8933 7.328 50.6933 7.328C51.4453 7.328 52.0906 7.49867 52.6293 7.84C53.1733 8.18133 53.5919 8.66667 53.8853 9.296C54.1839 9.92 54.3333 10.672 54.3333 11.552C54.3333 11.696 54.3279 11.84 54.3173 11.984C54.3119 12.1227 54.3039 12.2453 54.2933 12.352H48.6933ZM50.7093 8.656C50.1493 8.656 49.6853 8.856 49.3173 9.256C48.9546 9.656 48.7439 10.28 48.6853 11.128H52.5973C52.5813 10.3333 52.4106 9.72267 52.0853 9.296C51.7653 8.86933 51.3066 8.656 50.7093 8.656Z" fill="white"/>
</svg>
