<svg width="67" height="22" viewBox="0 0 67 22" fill="none" xmlns="http://www.w3.org/2000/svg">
<path d="M7.536 8.76L7.088 12.16H8.272V13.44H6.912L6.584 16H5.08L5.416 13.44H3.392L3.056 16H1.552L1.888 13.44H0.744V12.16H2.056L2.52 8.76H1.336V7.472H2.688L3.016 4.96H4.528L4.176 7.472H6.208L6.544 4.96H8.048L7.704 7.472H8.864V8.76H7.536ZM3.56 12.16H5.584L6.04 8.76H4.008L3.56 12.16Z" fill="#C778DD"/>
<path d="M21.496 14.84C22.056 14.84 22.5013 14.7413 22.832 14.544C23.1627 14.3413 23.328 14.064 23.328 13.712C23.328 13.4827 23.28 13.288 23.184 13.128C23.088 12.9627 22.896 12.8133 22.608 12.68C22.32 12.5413 21.8827 12.3973 21.296 12.248C20.7413 12.104 20.2533 11.9333 19.832 11.736C19.416 11.5387 19.0933 11.2827 18.864 10.968C18.6347 10.6533 18.52 10.248 18.52 9.752C18.52 9.26667 18.656 8.84267 18.928 8.48C19.2 8.11733 19.5893 7.83467 20.096 7.632C20.608 7.42933 21.208 7.328 21.896 7.328C22.6053 7.328 23.224 7.42133 23.752 7.608C24.28 7.79467 24.7307 8.02667 25.104 8.304L24.352 9.432C24.0213 9.21333 23.6587 9.03467 23.264 8.896C22.8747 8.75733 22.4347 8.688 21.944 8.688C21.3733 8.688 20.9627 8.77333 20.712 8.944C20.4667 9.11467 20.344 9.34133 20.344 9.624C20.344 9.832 20.4053 10.008 20.528 10.152C20.656 10.2907 20.8747 10.4213 21.184 10.544C21.4933 10.6613 21.9307 10.8 22.496 10.96C23.0453 11.1093 23.5227 11.2853 23.928 11.488C24.3387 11.6907 24.656 11.96 24.88 12.296C25.1093 12.6267 25.224 13.0587 25.224 13.592C25.224 14.2 25.048 14.6987 24.696 15.088C24.3493 15.472 23.8907 15.7573 23.32 15.944C22.7547 16.1253 22.1467 16.216 21.496 16.216C20.712 16.216 20.0347 16.104 19.464 15.88C18.8933 15.6507 18.4133 15.3653 18.024 15.024L18.976 13.936C19.3067 14.2027 19.6853 14.4213 20.112 14.592C20.5387 14.7573 21 14.84 21.496 14.84ZM35.0738 15.552C34.7644 15.7493 34.3938 15.9093 33.9618 16.032C33.5298 16.1547 33.0791 16.216 32.6098 16.216C31.6284 16.216 30.8818 15.9627 30.3698 15.456C29.8631 14.944 29.6098 14.272 29.6098 13.44V8.856H27.7298V7.552H29.6098V5.664L31.4018 5.448V7.552H34.2498L34.0498 8.856H31.4018V13.424C31.4018 13.8773 31.5138 14.216 31.7378 14.44C31.9671 14.6587 32.3404 14.768 32.8578 14.768C33.1671 14.768 33.4524 14.7307 33.7138 14.656C33.9751 14.5813 34.2124 14.4853 34.4258 14.368L35.0738 15.552ZM44.0675 13.928C44.0675 14.2587 44.1182 14.5013 44.2195 14.656C44.3208 14.8053 44.4835 14.9173 44.7075 14.992L44.3075 16.208C43.8915 16.16 43.5342 16.0453 43.2355 15.864C42.9368 15.6827 42.7102 15.408 42.5555 15.04C42.2462 15.4293 41.8542 15.7227 41.3795 15.92C40.9048 16.1173 40.3982 16.216 39.8595 16.216C39.0062 16.216 38.3288 15.976 37.8275 15.496C37.3315 15.0107 37.0835 14.376 37.0835 13.592C37.0835 12.7013 37.4302 12.016 38.1235 11.536C38.8168 11.056 39.8088 10.816 41.0995 10.816H42.3075V10.264C42.3075 9.72 42.1422 9.328 41.8115 9.088C41.4862 8.848 41.0248 8.728 40.4275 8.728C40.1502 8.728 39.8142 8.76533 39.4195 8.84C39.0248 8.90933 38.6115 9.01867 38.1795 9.168L37.7395 7.904C38.2675 7.70667 38.7848 7.56267 39.2915 7.472C39.7982 7.376 40.2675 7.328 40.6995 7.328C41.8302 7.328 42.6728 7.57867 43.2275 8.08C43.7875 8.58133 44.0675 9.27467 44.0675 10.16V13.928ZM40.4035 14.896C40.7662 14.896 41.1208 14.8 41.4675 14.608C41.8142 14.416 42.0942 14.1467 42.3075 13.8V11.936H41.3155C40.4728 11.936 39.8702 12.0773 39.5075 12.36C39.1448 12.6373 38.9635 13.0213 38.9635 13.512C38.9635 13.96 39.0835 14.304 39.3235 14.544C39.5688 14.7787 39.9288 14.896 40.4035 14.896ZM51.2773 14.744C51.6719 14.744 52.0399 14.6773 52.3813 14.544C52.7226 14.4053 53.0479 14.2267 53.3573 14.008L54.1892 15.16C53.8213 15.4747 53.3733 15.7307 52.8453 15.928C52.3226 16.12 51.7813 16.216 51.2213 16.216C50.3573 16.216 49.6186 16.0347 49.0053 15.672C48.3919 15.304 47.9226 14.7893 47.5973 14.128C47.2719 13.4667 47.1093 12.696 47.1093 11.816C47.1093 10.9573 47.2719 10.192 47.5973 9.52C47.9279 8.84267 48.4026 8.30933 49.0213 7.92C49.6399 7.52533 50.3839 7.328 51.2533 7.328C51.8293 7.328 52.3599 7.41333 52.8453 7.584C53.3306 7.75467 53.7759 8.008 54.1813 8.344L53.3573 9.472C53.0266 9.24267 52.6879 9.06933 52.3413 8.952C51.9999 8.82933 51.6479 8.768 51.2853 8.768C50.6186 8.768 50.0719 9.01333 49.6453 9.504C49.2239 9.99467 49.0133 10.7653 49.0133 11.816C49.0133 12.52 49.1093 13.088 49.3013 13.52C49.4986 13.9467 49.7679 14.2587 50.1093 14.456C50.4506 14.648 50.8399 14.744 51.2773 14.744ZM64.239 7.552L60.823 11.328L64.599 16H62.407L58.775 11.376L62.151 7.552H64.239ZM58.647 3.96V16H56.855V4.16L58.647 3.96Z" fill="white"/>
</svg>
