<?xml version="1.0" encoding="utf-8"?>
<!-- Generator: Adobe Illustrator 25.2.3, SVG Export Plug-In . SVG Version: 6.00 Build 0)  -->
<svg version="1.1" id="Capa_1" xmlns="http://www.w3.org/2000/svg" xmlns:xlink="http://www.w3.org/1999/xlink" x="0px" y="0px"
	 viewBox="0 0 892.9 226.6" style="enable-background:new 0 0 892.9 226.6;" xml:space="preserve">
<style type="text/css">
	.st0{fill:#FFFFFF;}
	.st1{fill:#C21B36;}
	.st2{fill:#567BC6;}
</style>
<g>
	<g>
		<g>
			<g>
				<path class="st0" d="M301.9,58.7c2.1,0,4,0.8,5.6,2.3c1.6,1.5,2.4,3.4,2.4,5.7V169h-16V66.6c0-2.2,0.8-4.1,2.3-5.6
					C297.7,59.5,299.6,58.7,301.9,58.7z M381.5,58.7c7.6,0,14.8,1.5,21.5,4.3c6.7,2.9,12.6,6.8,17.5,11.7c5,5,8.9,10.8,11.8,17.5
					c2.9,6.7,4.3,13.9,4.3,21.6c0,7.5-1.4,14.6-4.3,21.3c-2.9,6.7-6.8,12.5-11.8,17.6c-5,5-10.9,9-17.5,11.9
					c-6.7,2.9-13.9,4.4-21.5,4.4c-7.6,0-14.7-1.5-21.5-4.4c-6.7-2.9-12.6-6.9-17.6-11.9c-5-5.1-8.9-10.9-11.8-17.6
					c-2.9-6.7-4.3-13.8-4.3-21.3c0-7.7,1.4-14.9,4.3-21.6c2.9-6.7,6.8-12.5,11.8-17.5c5-4.9,10.9-8.8,17.6-11.7
					C366.7,60.1,373.9,58.7,381.5,58.7z M381.5,152.3c5.3,0,10.3-1,15-3c4.7-2,8.8-4.8,12.3-8.2c3.5-3.4,6.2-7.5,8.2-12.2
					c2-4.7,3-9.7,3-15c0-5.4-1-10.4-3-15.1c-2-4.7-4.7-8.7-8.2-12.3c-3.5-3.5-7.6-6.2-12.3-8.3c-4.7-2-9.7-3.1-15-3.1
					c-5.3,0-10.3,1-15,3.1c-4.7,2-8.7,4.8-12.3,8.3C350.7,90,348,94,346,98.7c-2,4.7-3,9.7-3,15.1c0,5.3,1,10.3,3,15
					c2,4.7,4.7,8.8,8.2,12.2c3.5,3.4,7.6,6.2,12.3,8.2C371.2,151.2,376.1,152.3,381.5,152.3z M444.7,58.6h49.8c2,0,3.8,0.7,5.2,2.2
					c1.5,1.5,2.2,3.3,2.2,5.4c0,2.1-0.7,4-2.2,5.5c-1.4,1.6-3.2,2.3-5.2,2.3h-17.2v94.9h-15.8V73.9h-16.8c-2.1,0-3.9-0.8-5.4-2.3
					c-1.5-1.5-2.3-3.4-2.3-5.5c0-2.1,0.8-3.9,2.3-5.4C440.8,59.3,442.6,58.6,444.7,58.6z M543.4,103.2H555c4.4,0,8.5,0.9,12.4,2.6
					c3.9,1.8,7.2,4.1,10.1,7.1c2.9,3,5.1,6.4,6.8,10.4c1.6,4,2.4,8.2,2.4,12.7c0,4.5-0.9,8.7-2.6,12.7c-1.7,4-4.1,7.4-7.1,10.4
					c-3,3-6.5,5.3-10.5,7.1c-4,1.8-8.2,2.6-12.7,2.6h-40.3v-16.4h40.3c2.2,0,4.4-0.4,6.4-1.3c2-0.8,3.8-2,5.3-3.4
					c1.5-1.5,2.7-3.2,3.6-5.2c0.9-2,1.3-4.2,1.3-6.5c0-2.3-0.4-4.5-1.3-6.5c-0.9-2-2.1-3.8-3.6-5.3c-1.5-1.5-3.3-2.7-5.3-3.5
					c-2-0.8-4.2-1.3-6.4-1.3h-10.5c-1,0-1.9,0-2.7-0.1c-0.8-0.1-1.7-0.2-2.6-0.3c-3.5-0.7-6.8-1.9-9.9-3.7c-3-1.8-5.7-4-8-6.6
					c-2.2-2.7-4-5.7-5.4-9c-1.3-3.3-2-6.9-2-10.7c0-4.2,0.8-8.1,2.4-11.8c1.6-3.7,3.8-6.9,6.5-9.7c2.7-2.7,6-4.9,9.7-6.5
					c3.7-1.6,7.7-2.4,11.9-2.4h30.3c2.2,0,4.1,0.8,5.7,2.3c1.6,1.5,2.4,3.4,2.4,5.7c0,2.4-0.8,4.3-2.4,5.8c-1.6,1.5-3.5,2.3-5.7,2.3
					L543.4,75c-1.9,0-3.8,0.4-5.5,1.1c-1.7,0.7-3.2,1.8-4.5,3c-1.3,1.3-2.3,2.7-3,4.4c-0.8,1.7-1.1,3.5-1.1,5.4c0,2,0.4,3.9,1.1,5.6
					c0.8,1.7,1.8,3.2,3,4.4c1.3,1.2,2.8,2.2,4.5,3C539.6,102.9,541.4,103.2,543.4,103.2z M618.6,152.5h55V169h-71.2V66.6
					c0-2.3,0.8-4.2,2.3-5.7c1.5-1.5,3.5-2.3,5.8-2.3h51c1.9,0,3.6,0.7,5,2c1.4,1.3,2.1,3,2.1,4.9c0,2-0.7,3.7-2.1,5.1
					c-1.4,1.4-3,2.1-5,2.1h-42.9v31.9h28.6v14.6h-28.6V152.5z M732.2,58.7c5.8,0,11.3,1.1,16.5,3.3c5.2,2.2,9.7,5.2,13.5,9
					c3.8,3.8,6.9,8.3,9.1,13.4c2.2,5.1,3.3,10.6,3.3,16.4V169h-16.4v-68.1c0-3.5-0.7-6.9-2.1-10c-1.4-3.2-3.2-5.9-5.6-8.2
					c-2.3-2.3-5.1-4.2-8.3-5.6c-3.2-1.4-6.5-2.1-10.1-2.1c-3.6,0-7,0.7-10.2,2.1c-3.1,1.4-5.8,3.2-8.1,5.6c-2.3,2.4-4.1,5.1-5.5,8.2
					c-1.4,3.1-2,6.5-2,10V169h-16.3v-68.1c0-5.8,1.1-11.3,3.3-16.4c2.2-5.1,5.2-9.6,9.1-13.4c3.8-3.8,8.3-6.8,13.4-9
					C720.9,59.8,726.4,58.7,732.2,58.7z M820.9,103.2h11.7c4.4,0,8.6,0.9,12.4,2.6c3.9,1.8,7.2,4.1,10.1,7.1c2.9,3,5.1,6.4,6.8,10.4
					c1.6,4,2.5,8.2,2.5,12.7c0,4.5-0.9,8.7-2.6,12.7c-1.7,4-4.1,7.4-7.1,10.4c-3,3-6.5,5.3-10.5,7.1c-4,1.8-8.2,2.6-12.7,2.6h-40.3
					v-16.4h40.3c2.2,0,4.3-0.4,6.4-1.3c2-0.8,3.8-2,5.3-3.4c1.5-1.5,2.7-3.2,3.6-5.2c0.9-2,1.3-4.2,1.3-6.5c0-2.3-0.4-4.5-1.3-6.5
					c-0.9-2-2.1-3.8-3.6-5.3c-1.5-1.5-3.3-2.7-5.3-3.5c-2-0.8-4.2-1.3-6.4-1.3h-10.5c-1,0-1.9,0-2.7-0.1c-0.8-0.1-1.7-0.2-2.6-0.3
					c-3.5-0.7-6.8-1.9-9.9-3.7c-3.1-1.8-5.7-4-8-6.6c-2.3-2.7-4-5.7-5.4-9c-1.3-3.3-2-6.9-2-10.7c0-4.2,0.8-8.1,2.4-11.8
					c1.6-3.7,3.7-6.9,6.5-9.7c2.8-2.7,6-4.9,9.7-6.5c3.7-1.6,7.7-2.4,11.9-2.4h30.3c2.2,0,4.1,0.8,5.7,2.3c1.6,1.5,2.4,3.4,2.4,5.7
					c0,2.4-0.8,4.3-2.4,5.8c-1.6,1.5-3.5,2.3-5.7,2.3L820.9,75c-1.9,0-3.8,0.4-5.5,1.1c-1.7,0.7-3.2,1.8-4.5,3
					c-1.3,1.3-2.3,2.7-3,4.4c-0.8,1.7-1.1,3.5-1.1,5.4c0,2,0.4,3.9,1.1,5.6c0.8,1.7,1.8,3.2,3,4.4c1.3,1.2,2.8,2.2,4.5,3
					C817.1,102.9,819,103.2,820.9,103.2z"/>
			</g>
			<g>
				<path class="st1" d="M217.8,122.1c-5.2,41.6-40.6,73.7-83.6,73.7c-43,0-78.4-32.2-83.6-73.7h-22c5.3,53.7,50.5,95.6,105.6,95.6
					c55,0,100.3-41.9,105.6-95.6H217.8z M134.2,5.5c-55,0-100.3,41.9-105.6,95.6h22c5.2-41.6,40.6-73.7,83.6-73.7
					c43,0,78.4,32.2,83.6,73.7h22C234.5,47.4,189.3,5.5,134.2,5.5z"/>
				<g>
					<path class="st2" d="M156.5,111.6c0-12.3-10-22.3-22.3-22.3c-12.3,0-22.3,10-22.3,22.3c0,12.3,10,22.3,22.3,22.3
						C146.5,133.9,156.5,123.9,156.5,111.6z"/>
				</g>
			</g>
		</g>
	</g>
	<g>
		<g>
			<g>
				<path class="st0" d="M577.5,209.1c-0.5,0.6-1,1.1-1.6,1.6c-0.6,0.4-1.2,0.8-1.9,1.1c-0.7,0.3-1.3,0.5-2,0.6
					c-0.7,0.1-1.4,0.2-2.1,0.2c-1.7,0-3.3-0.3-4.7-1c-1.4-0.7-2.5-1.5-3.5-2.6c-1-1.1-1.7-2.3-2.2-3.8c-0.5-1.4-0.8-2.9-0.8-4.4
					c0-1.7,0.2-3.3,0.7-4.9c0.5-1.5,1.2-2.9,2.1-4c0.9-1.2,2.1-2.1,3.5-2.8c1.4-0.7,3-1,4.9-1c1.3,0,2.5,0.1,3.6,0.4
					c1.1,0.3,2.1,0.8,3,1.4c0.9,0.6,1.6,1.4,2.2,2.4c0.6,1,1,2.1,1.2,3.5h-3.1c-0.2-0.9-0.4-1.7-0.9-2.3c-0.4-0.7-0.9-1.2-1.5-1.6
					c-0.6-0.4-1.3-0.7-2.1-0.9c-0.8-0.2-1.6-0.3-2.5-0.3c-1.4,0-2.6,0.3-3.7,0.9c-1,0.6-1.8,1.3-2.5,2.3c-0.6,0.9-1.1,2-1.4,3.2
					s-0.5,2.4-0.5,3.7c0,1.2,0.2,2.4,0.5,3.5c0.3,1.1,0.9,2.1,1.5,3c0.7,0.9,1.5,1.6,2.5,2.1c1,0.5,2.1,0.8,3.5,0.8
					c1.2,0,2.3-0.2,3.2-0.6c1-0.4,1.8-0.9,2.4-1.6c0.7-0.7,1.1-1.5,1.5-2.5c0.3-0.9,0.5-2,0.4-3.1H570v-2.6h10.3V212h-2L577.5,209.1
					z"/>
				<path class="st0" d="M588.2,192h-2.8v-3.4h2.8V192z M585.4,195.1h2.8V212h-2.8V195.1z"/>
				<path class="st0" d="M593.3,195.1h2.6v2.5h0.1c1.3-1.9,3.1-2.9,5.5-2.9c1,0,2,0.2,2.9,0.7c0.9,0.4,1.5,1.2,1.8,2.2
					c0.6-0.9,1.3-1.6,2.3-2.1c0.9-0.5,2-0.8,3-0.8c0.9,0,1.6,0.1,2.3,0.3c0.7,0.2,1.3,0.5,1.8,0.9c0.5,0.4,0.9,0.9,1.1,1.5
					s0.4,1.4,0.4,2.2V212h-2.8v-11.1c0-0.5,0-1-0.1-1.5c-0.1-0.5-0.3-0.9-0.5-1.2c-0.2-0.3-0.6-0.6-1-0.8c-0.4-0.2-1-0.3-1.7-0.3
					c-1.4,0-2.4,0.4-3.2,1.2c-0.8,0.8-1.2,1.8-1.2,3.1V212h-2.8v-11.1c0-0.5,0-1-0.1-1.5c-0.1-0.5-0.3-0.9-0.5-1.2
					c-0.2-0.3-0.6-0.6-1-0.8c-0.4-0.2-0.9-0.3-1.5-0.3c-0.8,0-1.5,0.2-2.1,0.5s-1,0.7-1.4,1.2c-0.4,0.5-0.6,0.9-0.8,1.4
					c-0.2,0.5-0.2,0.9-0.2,1.2V212h-2.8V195.1z"/>
				<path class="st0" d="M636.5,206.7c-0.4,1.9-1.2,3.3-2.5,4.3c-1.3,1-2.9,1.5-4.8,1.5c-1.4,0-2.5-0.2-3.5-0.7
					c-1-0.4-1.8-1.1-2.5-1.9c-0.7-0.8-1.2-1.7-1.5-2.8c-0.3-1.1-0.5-2.3-0.6-3.6c0-1.3,0.2-2.4,0.6-3.5c0.4-1.1,0.9-2,1.7-2.8
					c0.7-0.8,1.6-1.4,2.5-1.8c1-0.4,2-0.7,3.2-0.7c1.5,0,2.8,0.3,3.8,0.9c1,0.6,1.8,1.4,2.4,2.4c0.6,1,1,2,1.2,3.1
					c0.2,1.1,0.3,2.2,0.3,3.2h-12.7c0,0.7,0.1,1.4,0.3,2.1c0.2,0.7,0.5,1.3,0.9,1.8c0.4,0.5,1,0.9,1.7,1.2c0.7,0.3,1.5,0.5,2.4,0.5
					c1.2,0,2.1-0.3,2.9-0.8c0.8-0.5,1.3-1.4,1.5-2.5H636.5z M633.8,201.9c0-0.7-0.2-1.3-0.4-1.9c-0.3-0.6-0.6-1.1-1-1.5
					c-0.4-0.4-0.9-0.8-1.5-1c-0.6-0.3-1.2-0.4-1.9-0.4c-0.7,0-1.4,0.1-1.9,0.4c-0.6,0.3-1.1,0.6-1.5,1c-0.4,0.4-0.7,0.9-1,1.5
					c-0.2,0.6-0.4,1.2-0.4,1.9H633.8z"/>
				<path class="st0" d="M640.5,195.1h2.6v2.7h0.1c0.6-1,1.3-1.8,2.3-2.3c0.9-0.5,2-0.8,3.2-0.8c1.1,0,2,0.2,2.8,0.5
					c0.7,0.3,1.3,0.7,1.8,1.3c0.5,0.5,0.8,1.2,1,1.9c0.2,0.8,0.3,1.6,0.3,2.5V212h-2.8v-11.5c0-1-0.3-1.9-0.9-2.5
					c-0.6-0.6-1.5-0.9-2.5-0.9c-0.9,0-1.6,0.1-2.2,0.4c-0.6,0.3-1.1,0.6-1.6,1.1c-0.4,0.5-0.7,1-0.9,1.7c-0.2,0.6-0.3,1.3-0.3,2.1
					v9.6h-2.8V195.1z"/>
				<path class="st0" d="M659.1,200.1c0.3-1.1,0.9-2,1.6-2.8s1.6-1.4,2.6-1.9c1-0.5,2.2-0.7,3.6-0.7c1.3,0,2.5,0.2,3.5,0.7
					c1,0.5,1.9,1.1,2.6,1.9s1.2,1.7,1.6,2.8c0.3,1.1,0.5,2.2,0.5,3.5c0,1.2-0.2,2.4-0.5,3.5c-0.4,1.1-0.9,2-1.6,2.8
					c-0.7,0.8-1.6,1.4-2.6,1.9c-1,0.5-2.2,0.7-3.5,0.7c-1.4,0-2.5-0.2-3.6-0.7c-1-0.5-1.9-1.1-2.6-1.9c-0.7-0.8-1.2-1.7-1.6-2.8
					c-0.4-1.1-0.5-2.2-0.5-3.5C658.6,202.3,658.8,201.2,659.1,200.1z M662,206.3c0.3,0.8,0.6,1.5,1.1,2c0.5,0.5,1,0.9,1.7,1.2
					c0.6,0.3,1.3,0.4,2,0.4c0.7,0,1.4-0.1,2-0.4c0.6-0.3,1.2-0.7,1.7-1.2c0.5-0.5,0.9-1.2,1.1-2s0.4-1.7,0.4-2.7s-0.1-1.9-0.4-2.7
					s-0.6-1.5-1.1-2c-0.5-0.5-1-1-1.7-1.2c-0.6-0.3-1.3-0.4-2-0.4c-0.7,0-1.4,0.1-2,0.4c-0.6,0.3-1.2,0.7-1.7,1.2
					c-0.5,0.5-0.9,1.2-1.1,2c-0.3,0.8-0.4,1.7-0.4,2.7S661.7,205.5,662,206.3z"/>
				<path class="st0" d="M689.7,188.6h3.1V212h-3.1V188.6z"/>
				<path class="st0" d="M698,200.1c0.3-1.1,0.9-2,1.6-2.8s1.6-1.4,2.6-1.9c1-0.5,2.2-0.7,3.6-0.7c1.3,0,2.5,0.2,3.5,0.7
					c1,0.5,1.9,1.1,2.6,1.9s1.2,1.7,1.6,2.8c0.3,1.1,0.5,2.2,0.5,3.5c0,1.2-0.2,2.4-0.5,3.5c-0.4,1.1-0.9,2-1.6,2.8
					c-0.7,0.8-1.6,1.4-2.6,1.9c-1,0.5-2.2,0.7-3.5,0.7c-1.4,0-2.5-0.2-3.6-0.7c-1-0.5-1.9-1.1-2.6-1.9c-0.7-0.8-1.2-1.7-1.6-2.8
					c-0.4-1.1-0.5-2.2-0.5-3.5C697.5,202.3,697.6,201.2,698,200.1z M700.8,206.3c0.3,0.8,0.6,1.5,1.1,2c0.5,0.5,1,0.9,1.7,1.2
					c0.6,0.3,1.3,0.4,2,0.4c0.7,0,1.4-0.1,2-0.4c0.6-0.3,1.2-0.7,1.7-1.2c0.5-0.5,0.9-1.2,1.1-2s0.4-1.7,0.4-2.7s-0.1-1.9-0.4-2.7
					s-0.6-1.5-1.1-2c-0.5-0.5-1-1-1.7-1.2c-0.6-0.3-1.3-0.4-2-0.4c-0.7,0-1.4,0.1-2,0.4c-0.6,0.3-1.2,0.7-1.7,1.2
					c-0.5,0.5-0.9,1.2-1.1,2c-0.3,0.8-0.4,1.7-0.4,2.7S700.5,205.5,700.8,206.3z"/>
				<path class="st0" d="M723.8,191.2H716v-2.6h18.7v2.6h-7.8V212h-3.1V191.2z"/>
				<path class="st0" d="M762.7,212h-2.8v-2.3h-0.1c-0.5,0.9-1.2,1.6-2.2,2c-1,0.4-2.1,0.6-3.2,0.6c-1.3,0-2.5-0.2-3.4-0.7
					s-1.8-1.1-2.4-1.9c-0.6-0.8-1.1-1.8-1.5-2.8c-0.3-1.1-0.5-2.2-0.5-3.4c0-1.2,0.2-2.3,0.5-3.4c0.3-1.1,0.8-2,1.4-2.8
					c0.6-0.8,1.5-1.4,2.4-1.9c1-0.5,2.1-0.7,3.4-0.7c0.4,0,0.9,0,1.4,0.1c0.5,0.1,1,0.2,1.5,0.4c0.5,0.2,1,0.5,1.4,0.8
					c0.4,0.3,0.8,0.8,1.1,1.3h0.1v-8.7h2.8V212z M749.9,206c0.2,0.8,0.5,1.4,0.9,2c0.4,0.6,1,1.1,1.6,1.4c0.7,0.4,1.4,0.5,2.3,0.5
					c0.9,0,1.7-0.2,2.4-0.6c0.7-0.4,1.2-0.9,1.6-1.5c0.4-0.6,0.7-1.3,0.9-2c0.2-0.8,0.3-1.5,0.3-2.3c0-0.8-0.1-1.6-0.3-2.4
					s-0.5-1.5-0.9-2c-0.4-0.6-1-1.1-1.7-1.4c-0.7-0.4-1.5-0.5-2.5-0.5s-1.8,0.2-2.4,0.6c-0.6,0.4-1.2,0.9-1.6,1.5
					c-0.4,0.6-0.7,1.3-0.9,2.1c-0.2,0.8-0.3,1.6-0.3,2.4C749.6,204.5,749.7,205.3,749.9,206z"/>
				<path class="st0" d="M770.8,192H768v-3.4h2.8V192z M768,195.1h2.8V212H768V195.1z"/>
				<path class="st0" d="M783.5,212h-2.9l-6.3-16.9h3.1l4.7,14.1h0.1l4.6-14.1h2.9L783.5,212z"/>
				<path class="st0" d="M796.1,192h-2.8v-3.4h2.8V192z M793.3,195.1h2.8V212h-2.8V195.1z"/>
				<path class="st0" d="M802.9,206.7c0,0.6,0.2,1.2,0.4,1.6c0.3,0.4,0.6,0.7,1,1c0.4,0.3,0.9,0.4,1.4,0.5c0.5,0.1,1.1,0.2,1.7,0.2
					c0.4,0,0.9,0,1.4-0.1c0.5-0.1,0.9-0.2,1.3-0.4c0.4-0.2,0.7-0.4,1-0.8c0.3-0.3,0.4-0.8,0.4-1.3c0-0.5-0.2-1-0.5-1.3
					c-0.3-0.3-0.7-0.6-1.2-0.8c-0.5-0.2-1.1-0.4-1.8-0.5c-0.7-0.1-1.3-0.3-2-0.4c-0.7-0.2-1.4-0.3-2-0.6c-0.7-0.2-1.2-0.5-1.8-0.9
					c-0.5-0.4-0.9-0.8-1.3-1.4c-0.3-0.6-0.5-1.2-0.5-2c0-0.9,0.2-1.6,0.6-2.2c0.4-0.6,0.9-1.1,1.5-1.5c0.6-0.4,1.3-0.7,2-0.9
					c0.8-0.2,1.5-0.3,2.2-0.3c0.9,0,1.8,0.1,2.6,0.2c0.8,0.2,1.5,0.4,2.2,0.9c0.6,0.4,1.1,0.9,1.5,1.6c0.4,0.7,0.6,1.5,0.7,2.6H811
					c0-0.5-0.2-1-0.4-1.4c-0.3-0.4-0.6-0.6-0.9-0.9c-0.4-0.2-0.8-0.4-1.2-0.5c-0.4-0.1-0.9-0.1-1.4-0.1c-0.4,0-0.8,0-1.3,0.1
					c-0.4,0.1-0.8,0.2-1.2,0.3c-0.4,0.2-0.6,0.4-0.9,0.7c-0.2,0.3-0.3,0.6-0.3,1c0,0.5,0.2,0.9,0.5,1.2c0.3,0.3,0.8,0.6,1.3,0.8
					c0.5,0.2,1.1,0.4,1.8,0.5c0.7,0.1,1.3,0.3,2,0.4c0.7,0.2,1.4,0.3,2,0.6c0.7,0.2,1.3,0.5,1.8,0.9c0.5,0.4,0.9,0.8,1.2,1.4
					c0.3,0.5,0.5,1.2,0.5,2c0,1-0.2,1.9-0.6,2.5c-0.4,0.7-1,1.2-1.7,1.7c-0.7,0.4-1.5,0.7-2.3,0.9s-1.7,0.3-2.6,0.3
					c-1,0-1.9-0.1-2.7-0.3c-0.8-0.2-1.6-0.5-2.2-1c-0.7-0.4-1.2-1-1.6-1.8c-0.4-0.7-0.6-1.6-0.7-2.7H802.9z"/>
				<path class="st0" d="M821.4,192h-2.8v-3.4h2.8V192z M818.6,195.1h2.8V212h-2.8V195.1z"/>
				<path class="st0" d="M826.1,200.1c0.3-1.1,0.9-2,1.6-2.8s1.6-1.4,2.6-1.9c1-0.5,2.2-0.7,3.6-0.7c1.3,0,2.5,0.2,3.5,0.7
					c1,0.5,1.9,1.1,2.6,1.9s1.2,1.7,1.6,2.8c0.3,1.1,0.5,2.2,0.5,3.5c0,1.2-0.2,2.4-0.5,3.5c-0.4,1.1-0.9,2-1.6,2.8
					c-0.7,0.8-1.6,1.4-2.6,1.9c-1,0.5-2.2,0.7-3.5,0.7c-1.4,0-2.5-0.2-3.6-0.7c-1-0.5-1.9-1.1-2.6-1.9c-0.7-0.8-1.2-1.7-1.6-2.8
					c-0.4-1.1-0.5-2.2-0.5-3.5C825.6,202.3,825.8,201.2,826.1,200.1z M828.9,206.3c0.3,0.8,0.6,1.5,1.1,2c0.5,0.5,1,0.9,1.7,1.2
					c0.6,0.3,1.3,0.4,2,0.4c0.7,0,1.4-0.1,2-0.4c0.6-0.3,1.2-0.7,1.7-1.2c0.5-0.5,0.9-1.2,1.1-2s0.4-1.7,0.4-2.7s-0.1-1.9-0.4-2.7
					s-0.6-1.5-1.1-2c-0.5-0.5-1-1-1.7-1.2c-0.6-0.3-1.3-0.4-2-0.4c-0.7,0-1.4,0.1-2,0.4c-0.6,0.3-1.2,0.7-1.7,1.2
					c-0.5,0.5-0.9,1.2-1.1,2c-0.3,0.8-0.4,1.7-0.4,2.7S828.7,205.5,828.9,206.3z"/>
				<path class="st0" d="M846.1,195.1h2.6v2.7h0.1c0.6-1,1.3-1.8,2.3-2.3c0.9-0.5,2-0.8,3.2-0.8c1.1,0,2,0.2,2.8,0.5
					c0.7,0.3,1.3,0.7,1.8,1.3c0.5,0.5,0.8,1.2,1,1.9c0.2,0.8,0.3,1.6,0.3,2.5V212h-2.8v-11.5c0-1-0.3-1.9-0.9-2.5s-1.5-0.9-2.5-0.9
					c-0.9,0-1.6,0.1-2.2,0.4c-0.6,0.3-1.1,0.6-1.6,1.1c-0.4,0.5-0.7,1-0.9,1.7c-0.2,0.6-0.3,1.3-0.3,2.1v9.6h-2.8V195.1z"/>
			</g>
		</g>
	</g>
</g>
</svg>
