<svg width="137" height="32" viewBox="0 0 137 32" fill="none" xmlns="http://www.w3.org/2000/svg">
<path d="M41.0895 2.06013V9.36169H38.6556V2.06013H36.6555V0H43.0873V2.06013H41.0895Z" fill="black"/>
<path d="M46.9284 3.61272H50.4419V0H52.8757V9.36169H50.4419V5.49982H46.9284V9.36169H44.4945V0H46.9284V3.61272Z" fill="black"/>
<path d="M59.6075 2.06013H56.7146V3.62425H59.446V5.68669H56.7146V7.30157H59.6075V9.36169H54.2807V0H59.6075V2.06013Z" fill="black"/>
<path d="M36.6323 10.4737H44.7436C46.67 10.4737 48.1326 10.9374 49.1315 11.8625C50.1304 12.7876 50.631 14.121 50.631 15.8627C50.631 16.917 50.4419 17.7937 50.0612 18.4881C49.6806 19.1825 49.1038 19.7708 48.3264 20.2529C49.1038 20.4029 49.7659 20.629 50.3127 20.9335C50.8594 21.238 51.3024 21.614 51.6461 22.0593C51.9875 22.5045 52.2344 23.0051 52.382 23.5588C52.5297 24.1148 52.6035 24.7077 52.6035 25.3375C52.6035 26.3179 52.4328 27.19 52.089 27.949C51.7453 28.708 51.2654 29.347 50.6449 29.8661C50.0243 30.3851 49.2699 30.7727 48.3817 31.0334C47.4935 31.2941 46.4923 31.4233 45.3827 31.4233H36.6323V10.4737ZM42.0768 18.6957H43.0757C44.7782 18.6957 45.6318 18.0198 45.6318 16.6679C45.6318 15.316 44.7806 14.6401 43.0757 14.6401H42.0768V18.6957ZM42.0768 27.1946H43.2718C44.6421 27.1946 45.6226 27.0193 46.2155 26.6663C46.8084 26.3133 47.1037 25.7504 47.1037 24.973C47.1037 24.1955 46.8084 23.6303 46.2155 23.2797C45.6226 22.9267 44.6421 22.7514 43.2718 22.7514H42.0768V27.1946Z" fill="black"/>
<path d="M71.5783 31.4163H64.8005L59.6075 23.3627V31.4163H54.163V10.4737H62.6342C63.8015 10.4737 64.8189 10.6444 65.6887 10.9881C66.5584 11.3319 67.2758 11.7979 67.8411 12.3908C68.4063 12.9836 68.8307 13.6688 69.1191 14.4463C69.4052 15.2237 69.5505 16.0565 69.5505 16.9447C69.5505 18.5388 69.1653 19.8284 68.397 20.8204C67.6288 21.8124 66.4938 22.4838 64.9942 22.8344L71.5783 31.4163ZM59.6075 19.8354H60.6341C61.7068 19.8354 62.5327 19.6139 63.1048 19.1686C63.6793 18.7234 63.9653 18.0867 63.9653 17.2515C63.9653 16.4187 63.6793 15.7797 63.1048 15.3345C62.5304 14.8915 61.7068 14.6677 60.6341 14.6677H59.6075V19.8354Z" fill="black"/>
<path d="M78.0378 10.4737V31.4163H72.5934V10.4737H78.0378Z" fill="black"/>
<path d="M80.9492 10.4737H89.0052C90.4309 10.4737 91.7689 10.7597 93.0193 11.3342C94.2697 11.9086 95.3609 12.6722 96.2975 13.625C97.2318 14.5801 97.9677 15.6897 98.5053 16.9586C99.0428 18.2274 99.3104 19.5562 99.3104 20.945C99.3104 22.3153 99.0474 23.6349 98.5191 24.9038C97.9908 26.1726 97.2595 27.2892 96.3252 28.2512C95.3909 29.2132 94.2974 29.9814 93.047 30.5559C91.7966 31.1303 90.4493 31.4163 89.0052 31.4163H80.9492V10.4737ZM86.3937 26.807H87.644C88.5876 26.807 89.4296 26.6594 90.1725 26.3618C90.913 26.0665 91.5382 25.6581 92.0481 25.1391C92.5579 24.62 92.9455 24.0041 93.2154 23.2912C93.483 22.5783 93.6191 21.7963 93.6191 20.945C93.6191 20.1122 93.4807 19.3347 93.2015 18.6127C92.9247 17.8906 92.5302 17.27 92.0204 16.7509C91.5105 16.2319 90.8853 15.8258 90.1448 15.5282C89.4043 15.2329 88.5714 15.083 87.644 15.083H86.3937V26.807Z" fill="black"/>
<path d="M112.139 19.6946H122.943C122.943 20.8043 122.897 21.8147 122.805 22.7214C122.712 23.628 122.528 24.4701 122.249 25.2498C121.861 26.341 121.333 27.3099 120.666 28.152C119.999 28.994 119.217 29.6977 118.32 30.2629C117.422 30.8281 116.435 31.2595 115.362 31.5548C114.287 31.8501 113.159 32 111.973 32C110.345 32 108.857 31.7324 107.516 31.1949C106.174 30.6574 105.02 29.903 104.058 28.9318C103.096 27.9605 102.346 26.7932 101.809 25.4321C101.271 24.071 101.004 22.5668 101.004 20.9196C101.004 19.2909 101.267 17.796 101.795 16.4349C102.323 15.0738 103.073 13.9111 104.044 12.9491C105.016 11.987 106.187 11.2373 107.558 10.6998C108.928 10.1622 110.455 9.89462 112.142 9.89462C114.326 9.89462 116.244 10.3676 117.891 11.3111C119.538 12.2547 120.844 13.7173 121.808 15.699L116.643 17.8375C116.161 16.6887 115.535 15.8651 114.767 15.3645C113.999 14.8638 113.125 14.6147 112.142 14.6147C111.327 14.6147 110.587 14.7669 109.92 15.0715C109.253 15.376 108.684 15.812 108.213 16.3772C107.74 16.9424 107.371 17.623 107.103 18.4189C106.833 19.2148 106.7 20.1053 106.7 21.0857C106.7 21.9739 106.815 22.7975 107.048 23.5588C107.279 24.3178 107.627 24.9753 108.088 25.5313C108.552 26.0873 109.124 26.5187 109.809 26.8232C110.495 27.1277 111.29 27.28 112.199 27.28C112.737 27.28 113.254 27.22 113.754 27.1C114.255 26.9801 114.703 26.7863 115.102 26.5164C115.498 26.2487 115.828 25.9004 116.087 25.4736C116.345 25.0491 116.523 24.5301 116.615 23.9187H112.139V19.6946Z" fill="black"/>
<path d="M136.935 15.0853H130.464V18.585H136.575V23.1966H130.464V26.807H136.935V31.4163H125.019V10.4737H136.935V15.0853Z" fill="black"/>
<path d="M26.394 31.4371H5.01991C2.24693 31.4371 -6.10352e-05 29.1901 -6.10352e-05 26.4171V5.04304C-6.10352e-05 2.27006 2.24693 0.0230713 5.01991 0.0230713H26.394C29.167 0.0230713 31.414 2.27006 31.414 5.04304V26.4171C31.414 29.1901 29.167 31.4371 26.394 31.4371Z" fill="#F5333F"/>
<path d="M5.23444 15.7312V31.4371H10.4713V20.9657H20.9426V31.4371H26.1794V15.7312H5.23444Z" fill="white"/>
</svg>
